<?xml version="1.0" encoding="iso-8859-1"?>
<!-- Generator: Adobe Illustrator 19.0.0, SVG Export Plug-In . SVG Version: 6.00 Build 0)  -->
<svg version="1.1" id="Layer_1" xmlns="http://www.w3.org/2000/svg" xmlns:xlink="http://www.w3.org/1999/xlink" x="0px" y="0px"
	 viewBox="0 0 512 512" style="enable-background:new 0 0 512 512;" xml:space="preserve">
<g>
	<g>
		<g>
			<path d="M87.992,188.795c27.469,0,49.82-22.351,49.82-49.815c0-27.469-22.351-49.815-49.82-49.815s-49.818,22.346-49.818,49.815
				C38.175,166.443,60.523,188.795,87.992,188.795z M87.992,106.57c17.874,0,32.412,14.538,32.412,32.407
				c0,17.869-14.538,32.407-32.412,32.407c-17.871,0-32.41-14.538-32.41-32.407C55.583,121.108,70.121,106.57,87.992,106.57z"/>
			<rect x="79.288" y="388.475" width="17.408" height="123.341"/>
			<path d="M27.761,237.202c6.679-6.674,15.552-10.35,24.991-10.35h75.837v-17.408H52.751c-14.088,0-27.333,5.486-37.299,15.452
				C5.486,234.862,0,248.107,0,262.198v111.488h35.236v138.12h17.408V356.278H17.408v-94.08
				C17.408,252.756,21.084,243.883,27.761,237.202z"/>
			<rect x="79.288" y="245.217" width="17.408" height="19.351"/>
			<polygon points="123.333,511.805 140.744,511.805 140.744,373.686 167.276,373.686 167.276,356.278 123.333,356.278 			"/>
			<path d="M424.008,188.795c27.469,0,49.82-22.351,49.82-49.815c0-27.469-22.351-49.815-49.82-49.815s-49.815,22.346-49.815,49.815
				C374.193,166.443,396.541,188.795,424.008,188.795z M424.008,106.57c17.869,0,32.412,14.538,32.412,32.407
				c0,17.869-14.543,32.407-32.412,32.407s-32.407-14.538-32.407-32.407C391.601,121.108,406.139,106.57,424.008,106.57z"/>
			<rect x="415.309" y="388.475" width="17.408" height="123.341"/>
			<path d="M496.553,224.899c-9.966-9.966-23.212-15.452-37.302-15.452h-75.84v17.408h75.837c9.441,0,18.317,3.674,24.991,10.35
				c6.674,6.679,10.353,15.552,10.353,24.993v94.08h-35.238v155.528h17.408V373.688H512V262.2
				C512,248.11,506.516,234.865,496.553,224.899z"/>
			<rect x="415.309" y="245.217" width="17.408" height="19.351"/>
			<polygon points="344.724,373.686 371.256,373.686 371.256,511.805 388.664,511.805 388.664,356.278 344.724,356.278 			"/>
			<path d="M256,119.634c32.932,0,59.725-26.793,59.725-59.727c0-32.929-26.793-59.722-59.725-59.722s-59.725,26.793-59.725,59.72
				C196.275,92.841,223.068,119.634,256,119.634z M256,17.592c23.332,0,42.317,18.98,42.317,42.312
				c0,23.337-18.985,42.322-42.317,42.322s-42.317-18.985-42.317-42.322C213.683,36.572,232.668,17.592,256,17.592z"/>
			<rect x="247.296" y="358.728" width="17.408" height="153.065"/>
			<path d="M363.1,338.291V202.038c0-16.924-6.592-32.837-18.56-44.813c-11.971-11.968-27.884-18.557-44.808-18.557h-12.521
				L256,169.882l-31.214-31.214h-12.521c-16.924,0-32.837,6.589-44.805,18.557c-11.968,11.976-18.56,27.889-18.56,44.813v136.253
				h43.74v173.524h17.408V300.436H192.64v20.447h-26.33V202.038c0-12.278,4.78-23.818,13.461-32.504
				c8.681-8.678,20.224-13.458,32.497-13.458h5.312L256,194.499l38.426-38.423h5.309c12.275,0,23.816,4.78,32.497,13.458
				c8.681,8.683,13.463,20.227,13.463,32.504v118.845H319.36v-20.447h-17.408v211.379h17.408V338.291H363.1z"/>
			<rect x="247.296" y="209.326" width="17.408" height="19.351"/>
			<rect x="247.296" y="248.008" width="17.408" height="19.343"/>
		</g>
	</g>
</g>
<g>
</g>
<g>
</g>
<g>
</g>
<g>
</g>
<g>
</g>
<g>
</g>
<g>
</g>
<g>
</g>
<g>
</g>
<g>
</g>
<g>
</g>
<g>
</g>
<g>
</g>
<g>
</g>
<g>
</g>
</svg>
